<?xml version="1.0" standalone="no"?>
<!DOCTYPE svg PUBLIC "-//W3C//DTD SVG 20010904//EN"
 "http://www.w3.org/TR/2001/REC-SVG-20010904/DTD/svg10.dtd">
<svg version="1.0" xmlns="http://www.w3.org/2000/svg"
 width="2500.000000pt" height="2500.000000pt" viewBox="0 0 2500.000000 2500.000000"
 preserveAspectRatio="xMidYMid meet">
<metadata>
Created by potrace 1.11, written by Peter Selinger 2001-2013
</metadata>
<g transform="translate(0.000000,2500.000000) scale(0.100000,-0.100000)"
fill="#000000" stroke="none">
<path d="M11599 18266 c-2 -2 -53 -7 -114 -11 -60 -3 -123 -8 -140 -10 -16 -1
-61 -6 -100 -9 -66 -6 -101 -10 -185 -21 -19 -3 -55 -7 -80 -10 -101 -13 -126
-16 -140 -20 -8 -2 -35 -7 -60 -10 -25 -3 -67 -10 -95 -15 -27 -5 -61 -11 -75
-14 -64 -11 -238 -48 -289 -62 -31 -8 -63 -17 -72 -19 -50 -11 -218 -72 -309
-113 -273 -121 -523 -292 -746 -508 -114 -111 -187 -196 -408 -474 -37 -47
-83 -103 -101 -125 -47 -58 -110 -136 -400 -497 -143 -177 -262 -325 -265
-328 -3 -3 -70 -86 -150 -185 -79 -99 -166 -208 -194 -241 -28 -34 -73 -90
-101 -125 -27 -35 -52 -66 -55 -69 -3 -3 -50 -61 -105 -130 -55 -69 -102 -127
-105 -130 -3 -3 -21 -25 -40 -50 -19 -25 -37 -47 -40 -50 -3 -3 -21 -25 -40
-50 -19 -25 -37 -47 -40 -50 -3 -3 -44 -52 -90 -110 -46 -58 -87 -107 -90
-110 -3 -3 -27 -33 -53 -67 -26 -34 -53 -68 -60 -75 -6 -7 -66 -81 -132 -163
-155 -194 -143 -183 -195 -189 -25 -3 -56 -8 -70 -10 -14 -3 -43 -7 -65 -10
-22 -4 -51 -8 -65 -11 -14 -3 -41 -7 -60 -9 -70 -9 -315 -47 -330 -51 -8 -2
-40 -7 -70 -10 -30 -3 -62 -8 -70 -10 -8 -2 -35 -7 -60 -10 -25 -3 -56 -8 -70
-10 -14 -2 -70 -11 -125 -20 -55 -9 -111 -17 -125 -20 -14 -2 -44 -6 -68 -10
-23 -4 -52 -8 -65 -10 -12 -1 -85 -13 -162 -25 -77 -12 -153 -23 -170 -26 -16
-2 -147 -22 -290 -45 -143 -22 -273 -42 -290 -44 -16 -3 -47 -7 -68 -11 -20
-3 -47 -7 -60 -9 -88 -11 -124 -17 -137 -20 -8 -2 -35 -7 -60 -10 -25 -3 -58
-8 -75 -11 -16 -3 -46 -7 -65 -10 -19 -2 -75 -11 -125 -19 -84 -14 -298 -46
-390 -60 -23 -3 -50 -7 -60 -9 -31 -6 -103 -17 -128 -21 -12 -2 -42 -6 -67 -9
-25 -3 -70 -11 -100 -16 -30 -5 -72 -12 -92 -15 -21 -3 -55 -7 -75 -10 -21 -3
-63 -10 -93 -15 -30 -5 -73 -12 -95 -15 -22 -3 -80 -12 -130 -20 -49 -7 -110
-17 -135 -20 -47 -6 -85 -12 -135 -21 -16 -3 -46 -7 -65 -10 -19 -2 -123 -18
-230 -35 -107 -16 -211 -32 -230 -35 -19 -3 -46 -7 -60 -10 -14 -2 -43 -7 -65
-9 -88 -12 -222 -36 -255 -47 -19 -7 -42 -13 -50 -14 -8 -2 -50 -21 -95 -43
-237 -120 -406 -347 -454 -611 -6 -34 -9 -439 -8 -1085 l2 -1030 655 -2 c360
-1 674 -2 697 -3 l42 0 -20 -35 -21 -35 -850 0 c-946 0 -891 4 -946 -68 -24
-32 -27 -44 -27 -116 1 -73 7 -170 20 -305 5 -50 11 -133 20 -251 14 -176 32
-245 96 -353 90 -152 269 -276 434 -301 22 -3 72 -13 110 -21 39 -9 87 -18
108 -21 21 -3 49 -9 63 -14 14 -6 28 -9 32 -8 4 1 25 -2 47 -7 22 -4 47 -9 55
-11 8 -1 107 -21 220 -43 113 -23 216 -43 229 -46 13 -2 39 2 57 10 33 13 34
13 35 -8 0 -12 2 -30 4 -40 2 -10 9 -51 15 -90 17 -97 15 -91 39 -187 245
-970 1050 -1735 2016 -1915 50 -10 99 -19 110 -21 94 -19 568 -27 705 -12 57
7 89 12 200 32 237 43 579 171 785 296 28 16 57 33 65 37 21 10 131 86 215
149 275 207 521 490 698 804 123 217 237 529 282 770 24 131 41 294 44 421 l1
56 4610 -2 c2535 0 4613 -4 4617 -8 4 -4 8 -40 9 -80 4 -120 15 -212 51 -407
9 -51 43 -178 72 -265 174 -538 514 -999 978 -1327 318 -226 748 -399 1102
-443 30 -4 63 -9 75 -11 104 -21 572 -21 637 0 8 3 38 7 68 11 174 19 422 89
639 181 628 267 1137 791 1390 1430 51 129 98 278 117 374 1 3 4 19 8 35 9 38
15 70 22 115 3 20 7 45 9 55 4 22 16 127 21 195 2 25 5 91 6 148 1 56 4 102 8
103 10 2 148 6 421 13 140 4 316 9 390 11 74 3 232 7 350 10 118 3 274 7 345
10 72 2 245 7 385 10 140 4 311 8 380 10 69 3 220 7 335 10 116 4 214 11 220
16 5 5 25 9 45 9 44 0 134 34 180 68 116 86 146 158 196 477 7 48 12 70 14 70
1 0 3 11 6 25 13 84 25 148 29 170 3 14 8 48 11 75 5 47 3 54 -24 83 l-30 32
-152 0 -152 0 7 73 c3 39 8 92 11 117 2 25 6 68 8 97 2 28 7 56 10 62 7 11 9
42 22 341 15 337 9 1109 -11 1440 -1 25 -6 104 -10 175 -4 72 -9 137 -10 146
-2 8 -6 60 -10 115 -4 54 -9 107 -10 116 -2 9 -6 49 -10 90 -3 40 -8 84 -10
98 -2 14 -7 50 -10 80 -3 30 -8 66 -10 80 -2 14 -7 50 -10 80 -28 262 -51 331
-131 408 -50 47 -98 74 -162 91 -31 9 -1081 12 -4072 12 -2217 0 -4030 3
-4031 7 -1 9 -4 76 -13 247 -4 72 -9 157 -11 190 -2 33 -7 112 -10 175 -3 63
-7 149 -10 190 -2 41 -6 125 -10 185 -3 61 -8 146 -10 190 -13 229 -16 285
-20 345 -2 36 -7 121 -10 190 -3 69 -7 154 -10 190 -2 36 -6 119 -10 185 -7
144 -17 308 -30 535 -3 47 -7 128 -10 180 -12 238 -16 300 -20 370 -3 41 -7
129 -10 195 -8 177 -14 264 -21 319 -25 195 -165 360 -361 425 -63 21 -64 21
-1927 21 -1024 0 -1865 -2 -1867 -4z"/>
</g>
</svg>
